/* XPM */
static char *result[] = {
/* columns rows colors chars-per-pixel */
"64 64 34 1 ",
"  c #FF4013",
". c #FF4319",
"X c #FF4721",
"o c #FF4925",
"O c #FF4A26",
"+ c #FF5133",
"@ c #FF5940",
"# c #FF5B45",
"$ c #FF5D49",
"% c #FF6251",
"& c #FF6352",
"* c #FF6555",
"= c #FF6655",
"- c #FF6858",
"; c #FF6B5B",
": c #FF6E5F",
"> c #FF7769",
", c #FF8074",
"< c #FF8478",
"1 c #FF8C82",
"2 c #FF8D83",
"3 c #FF8F85",
"4 c #FF8F86",
"5 c #FF948B",
"6 c #FF988F",
"7 c #FF9A91",
"8 c #FF9F97",
"9 c #FFA098",
"0 c #FFA59E",
"q c #FFA9A2",
"w c #FFADA6",
"e c #FFB5AF",
"r c #FFC2BA",
"t c #FFE2D6",
/* pixels */
"                                                                ",
"                                                                ",
"                                                                ",
"                                                                ",
"                                                                ",
"                                                                ",
"                                                                ",
"                                                                ",
"                                                                ",
"                                                                ",
"                                                                ",
"                                                                ",
"                               XOOOOOOOOOOOOOOOOoOOOOOOOOOOOOOOO",
"OOOOOOOOOOOOOOO.               @%%%%%%%%%%%%%%%%#%%%%%%%%%%%%%%%",
"%%%%%%%%%%%%%%%+OOOOOOOOOOOOOOO#%%%%%%%%%%%%%%%%$%%%%%%%%%%%%%%%",
"%%%%%%%%%%%%%%%%%%%%%%%%%%%%%%%%%%%%%%%%%%%%%%%%%%%%%%%%%%%%%%%%",
"%%%%%%%%%%%%%%%%%%%%%%%%%%%%%%%%%%%%%%%%%%%%%%%%%%%%%%%%%%%%%%%%",
"%%%%%%%%%%%%%%%%%%%%%%%%%%%%%%%%%%%%%%%%%%%%%%%%%%%%%%%%%%%%%%%%",
"%%%%%%%%%%%%%%%%%%%%%%%%%%%%%%%%%%%%%%%%%%%%%%%%%%%%%%%%%%%%%%%%",
"%%%%%%%%%%%%%%%%%%%%%%%%%%%%%%%%%%%%%%%%%%%%%%%%%%%%%%%%%%%%%%%%",
"%%%%%%%%%%%%%%%%%%%%%%%%%%%%%%%%%%%%%%%%%%%%%%%%%%%%%%%%%%%%%%%%",
"%%%%%%%%%%%%%%%%%%%%%%%%%%%%%%%%%%%%%%%%%%%%%%%%%%%%%%%%%%%%%%%%",
"%%%%%%%%%%%%%%%%%%%%%%%%%%%%%%%%%%%%%%%%%%%%%%%%%%%%%%%%%%%%%%%%",
"%%%%%%%%%%%%%%%%%%%%%%%%%%%%%%%%%%%%%%%%%%%%%%%%%%%%%%%%%%%%%%%%",
"%%%%%%%%%%%%%%%%%%%%%%%%%%%%%%%%%%%%%%%%%%%%%%%%%%%%%%%%%%%%%%%%",
"%%%%%%%%%%%%%%%%%%%%%%%%%%%%%%%%%%%%%%%%%%%%%%%%%%%%%%%%%%%%%%%%",
"%%%%%%%%%%%%%%%%%%%%%%%%%%%%%%%%%%%%%%%%%%%%%%%%%%%%%%%%%%%%%%%%",
"::::::::::::::::*%%%%%%%%%%%%%%%%%%%%%%%%%%%%%%%%%%%%%%%%%%%%%%%",
"1111111111111111:%%%%%%%%%%%%%%%%%%%%%%%%%%%%%%%%%%%%%%%%%%%%%%%",
"1111111111111111:%%%%%%%%%%%%%%%%%%%%%%%%%%%%%%%%%%%%%%%%%%%%%%%",
"1111111111111111>::::::::::::::&%%%%%%%%%%%%%%%%%%%%%%%%%%%%%%%%",
"1111111111111111111111111111111=%%%%%%%%%%%%%%%%;:::::::::::::::",
"1111111111111111111111111111111-%%%%%%%%%%%%%%%%,111111111111111",
"1111111111111111111111111111111:%%%%%%%%%%%%%%%%,111111111111111",
"1111111111111111111111111111111>::::::::::::::::<111111111111111",
"1111111111111111111111111111111111111111111111111111111111111111",
"1111111111111111111111111111111111111111111111111111111111111111",
"1111111111111111111111111111111111111111111111111111111111111111",
"1111111111111111111111111111111111111111111111111111111111111111",
"1111111111111111111111111111111111111111111111111111111111111111",
"1111111111111111111111111111111111111111111111111111111111111111",
"1111111111111111111111111111111111111111111111111111111111111111",
"1111111111111111111111111111111111111111111111111111111111111111",
"1111111111111111111111111111111111111111111111111111111111111111",
"3333333333333333211111111111111111111111111111111111111111111111",
"8888888888888888521111111111111566666666666666641111111111111111",
"eeeeeeeeeeeeeeee831111111111111qeeeeeeeeeeeeeee61111111111111111",
"eeeeeeeeeeeeeeee831111111111111qeeeeeeeeeeeeeee61111111111111111",
"eeeeeeeeeeeeeeee831111111111111qeeeeeeeeeeeeeee61111111111111111",
"eeeeeeeeeeeeeeee076666666666666weeeeeeeeeeeeeee61111111111111111",
"eeeeeeeeeeeeeeeeeeeeeeeeeeeeeeeeeeeeeeeeeeeeeee96666666666666666",
"eeeeeeeeeeeeeeeeeeeeeeeeeeeeeeeeeeeeeeeeeeeeeeeeeeeeeeeeeeeeeeee",
"eeeeeeeeeeeeeeeeeeeeeeeeeeeeeeeeeeeeeeeeeeeeeeeeeeeeeeeeeeeeeeee",
"eeeeeeeeeeeeeeeeeeeeeeeeeeeeeeeeeeeeeeeeeeeeeeeeeeeeeeeeeeeeeeee",
"eeeeeeeeeeeeeeeeeeeeeeeeeeeeeeeeeeeeeeeeeeeeeeeeeeeeeeeeeeeeeeee",
"eeeeeeeeeeeeeeeeeeeeeeeeeeeeeeeeeeeeeeeeeeeeeeeeeeeeeeeeeeeeeeee",
"eeeeeeeeeeeeeeeeeeeeeeeeeeeeeeeeeeeeeeeeeeeeeeeeeeeeeeeeeeeeeeee",
"eeeeeeeeeeeeeeeeeeeeeeeeeeeeeeeeeeeeeeeeeeeeeeeeeeeeeeeeeeeeeeee",
"eeeeeeeeeeeeeeeeeeeeeeeeeeeeeeeeeeeeeeeeeeeeeeeeeeeeeeeeeeeeeeee",
"rrrrrrrrrrrrrrrrrrrrrrrrrrrrrrrrrrrrrrrrrrrrrrrrrrrrrrrrrrrrrrrr",
"tttttttttttttttttttttttttttttttttttttttttttttttttttttttttttttttt",
"tttttttttttttttttttttttttttttttttttttttttttttttttttttttttttttttt",
"tttttttttttttttttttttttttttttttttttttttttttttttttttttttttttttttt",
"tttttttttttttttttttttttttttttttttttttttttttttttttttttttttttttttt"
};
