/* XPM */
static char *result[] = {
/* columns rows colors chars-per-pixel */
"64 64 159 2 ",
"   c black",
".  c #010100",
"X  c #010101",
"o  c #020201",
"O  c #020202",
"+  c #040303",
"@  c #040403",
"#  c #050504",
"$  c #060605",
"%  c #070705",
"&  c #090907",
"*  c #0A0907",
"=  c #0A0A07",
"-  c #0A0A08",
";  c #0B0B08",
":  c #0D0D0A",
">  c #0E0E0B",
",  c #0F0F0B",
"<  c #10100D",
"1  c #11110D",
"2  c #13130F",
"3  c #161511",
"4  c #161612",
"5  c #181814",
"6  c #1A1A15",
"7  c #1D1D18",
"8  c #1E1D18",
"9  c #1F1F19",
"0  c #21211C",
"q  c #22211C",
"w  c #22221C",
"e  c #23221D",
"r  c #23231D",
"t  c #25241F",
"y  c #26261F",
"u  c #262620",
"i  c #272620",
"p  c #272721",
"a  c #282721",
"s  c #282821",
"d  c #292922",
"f  c #2A2923",
"g  c #2B2B24",
"h  c #2D2D26",
"j  c #32312A",
"k  c #32322A",
"l  c #33322B",
"z  c #33332B",
"x  c #34342C",
"c  c #35342C",
"v  c #36352D",
"b  c #37362F",
"n  c #38372F",
"m  c #393931",
"M  c #3A3A31",
"N  c #3B3B32",
"B  c #3C3B33",
"V  c #3C3C33",
"C  c #3D3C33",
"Z  c #3D3C34",
"A  c #3E3E35",
"S  c #3F3F36",
"D  c #44443A",
"F  c #45453B",
"G  c #47463C",
"H  c #4A493F",
"J  c #4E4D43",
"K  c #4F4E43",
"L  c #4F4F44",
"P  c #504F45",
"I  c #535347",
"U  c #56554A",
"Y  c #59584C",
"T  c #59594D",
"R  c #5A594D",
"E  c #5D5C50",
"W  c #5E5D51",
"Q  c #636255",
"!  c #646356",
"~  c #68675A",
"^  c #6A6A5B",
"/  c #6B6A5C",
"(  c #6E6D5E",
")  c #6F6E5F",
"_  c #717061",
"`  c #717062",
"'  c #747364",
"]  c #767566",
"[  c #777666",
"{  c #787768",
"}  c #797868",
"|  c #797869",
" . c #7C7B6C",
".. c #7D7C6C",
"X. c #7E7D6D",
"o. c #7F7E6E",
"O. c #807F6E",
"+. c #818070",
"@. c #828171",
"#. c #838171",
"$. c #848272",
"%. c #848372",
"&. c #858372",
"*. c #848373",
"=. c #858472",
"-. c #858473",
";. c #878675",
":. c #898876",
">. c #8D8B7A",
",. c #8E8D7B",
"<. c #908E7D",
"1. c #91907D",
"2. c #93917F",
"3. c #93927F",
"4. c #949280",
"5. c #969582",
"6. c #989784",
"7. c #999885",
"8. c #9A9986",
"9. c #9B9986",
"0. c #9C9B87",
"q. c #9D9B87",
"w. c #9D9C88",
"e. c #9E9C88",
"r. c #9F9E8A",
"t. c #A09E8A",
"y. c #A2A08C",
"u. c #A3A18D",
"i. c #A3A28D",
"p. c #A4A28E",
"a. c #A4A38E",
"s. c #A5A48F",
"d. c #A6A490",
"f. c #A7A691",
"g. c #A9A792",
"h. c #AAA893",
"j. c #ABA994",
"k. c #ABAA95",
"l. c #ACAB95",
"z. c #AFAD97",
"x. c #AFAD98",
"c. c #B1AF99",
"v. c #B3B19B",
"b. c #B7B59F",
"n. c #BBB9A2",
"m. c #BEBCA4",
"M. c #BEBCA5",
"N. c #C3C1A9",
"B. c #C8C7AE",
"V. c #C9C7AE",
"C. c #CFCDB4",
"Z. c #D1CFB6",
"A. c #DFDDC1",
"S. c #E3E1C5",
"D. c #E5E3C7",
"F. c #E7E5C9",
"G. c #E9E7CA",
"H. c #EAE8CC",
"J. c #EBE9CC",
/* pixels */
"                                                                                                                                ",
"                                                                                                                                ",
"                                                                                                                                ",
"                                                                                                                                ",
"              & V 8 . k g @                                                                                                     ",
"              0 e.%.x w._ ,                                                                                                     ",
"                l d.s.k.J e j 4                                                                                                 ",
"            y K E 8.J.Z.2.*.;.S                                                                                                 ",
"            L >.<.b.S.A.g.] W y                                                                                                 ",
"            t B N d.{  .i.H +                                                                           v p O                   ",
"                R r.B # $.9.B o                                                               = B 5   r a.^ ;                   ",
"              , q._ ,   1 -.Y &                                                               w p.' 7 O.1.c q :                 ",
"              u { k                                                                             P z.7.N.1.} @.n                 ",
"                                                                                            d U ) M.H.C.f.4.[ f                 ",
"                                                                                            R 6.e.m.D.v.b X                     ",
"                                                                                            a h A h.o.j.! *                     ",
"                                                                                              ; ,.=.9 Q u.G o                   ",
"                                                                                              r +.m   @ ..T -                   ",
"                                                                                                                                ",
"                                                                                                                                ",
"                                                                                                                                ",
"                                                                                                                                ",
"                                                                                                                                ",
"                                                                                                                                ",
"                                                                                                                                ",
"                                                                                                                                ",
"                                                                                                                                ",
"                                                                                                                                ",
"                                                                                                                                ",
"                                                                                                                                ",
"                                                                                                                                ",
"                                                                                                                                ",
"                                                                                                                                ",
"                                                                                                                                ",
"                                                                                                                                ",
"                                                                                                                                ",
"                                                                                                                                ",
"                                                                                                                                ",
"                                                                                                                                ",
"                                                                                                                                ",
"                                                                                                                                ",
"                                                                                                                                ",
"                                                                                                                                ",
"                                            k g @                                                                               ",
"                                & C 6     , q._ ,                                                                               ",
"                                0 u.| 3   R r.B                                                                                 ",
"                                  F g.W 7 q._ 2 > p <                                                                           ",
"                                    ` l.0.n.#._ ..&.M                                                                           ",
"                              s I ~ X.B.G.V.t.7.:.( s                                                                           ",
"                              U 4.9.3.v.F.c.M #                                                                                 ",
"                              i z 1 2 q.5.x.W %                                                                                 ",
"                                    R r.Z / y.D o                                                                               ",
"                                  , q._ , $ o.T =                                                                               ",
"                                  u { k                                                                                         ",
"                                                                                                                                ",
"                                                                                                                                ",
"                                                                                                                                ",
"                                                                                                                                ",
"                                                                                                                                ",
"                                                                                                                                ",
"                                                                                                                                ",
"                                                                                                                                ",
"                                                                                                                                ",
"                                                                                                                                "
};
