/* XPM */
static char *result[] = {
/* columns rows colors chars-per-pixel */
"64 64 168 2 ",
"   c black",
".  c #010000",
"X  c #010100",
"o  c #020100",
"O  c #030200",
"+  c #040200",
"@  c #040300",
"#  c #050300",
"$  c #060300",
"%  c #060400",
"&  c #080500",
"*  c #090500",
"=  c #0A0600",
"-  c #0B0700",
";  c #0D0800",
":  c #0E0800",
">  c #0E0900",
",  c #100A00",
"<  c #110A00",
"1  c #110B00",
"2  c #130C00",
"3  c #140D00",
"4  c #140E00",
"5  c #150E00",
"6  c #181100",
"7  c #191100",
"8  c #191200",
"9  c #1A1200",
"0  c #1B1300",
"q  c #1D1400",
"w  c #1D1500",
"e  c #1E1500",
"r  c #201700",
"t  c #231900",
"y  c #241A00",
"u  c #251B00",
"i  c #271C00",
"p  c #281D00",
"a  c #2B2000",
"s  c #2C2000",
"d  c #2D2100",
"f  c #2E2200",
"g  c #332600",
"h  c #342600",
"j  c #342700",
"k  c #352700",
"l  c #362800",
"z  c #3B2C00",
"x  c #3C2D00",
"c  c #3E2F00",
"v  c #433200",
"b  c #443300",
"n  c #453400",
"m  c #453500",
"M  c #473500",
"N  c #4A3800",
"B  c #4C3A00",
"V  c #4E3C00",
"C  c #503D00",
"Z  c #523E00",
"A  c #533F00",
"S  c #564100",
"D  c #564200",
"F  c #574300",
"G  c #584300",
"H  c #594400",
"J  c #5B4600",
"K  c #5D4700",
"L  c #5F4900",
"P  c #614A00",
"I  c #624B00",
"U  c #634C00",
"Y  c #654E00",
"T  c #664F00",
"R  c #695100",
"E  c #6B5200",
"W  c #6C5300",
"Q  c #6D5400",
"!  c #6F5500",
"~  c #705600",
"^  c #705700",
"/  c #735900",
"(  c #755A00",
")  c #765B00",
"_  c #785C00",
"`  c #7A5E00",
"'  c #7B5F00",
"]  c #7F6200",
"[  c #806300",
"{  c #826500",
"}  c #846600",
"|  c #866800",
" . c #876900",
".. c #8D6D00",
"X. c #8E6E00",
"o. c #8F6F00",
"O. c #907000",
"+. c #937200",
"@. c #957400",
"#. c #967500",
"$. c #977500",
"%. c #977600",
"&. c #9C7900",
"*. c #9D7A00",
"=. c #9E7A00",
"-. c #9E7B00",
";. c #A37F00",
":. c #A48000",
">. c #A58100",
",. c #A78200",
"<. c #A88300",
"1. c #A98400",
"2. c #AB8500",
"3. c #AC8600",
"4. c #AD8700",
"5. c #AE8800",
"6. c #AF8900",
"7. c #B08A00",
"8. c #B18A00",
"9. c #B38B00",
"0. c #B38C00",
"q. c #B48C00",
"w. c #B68D00",
"e. c #B78E00",
"r. c #B78F00",
"t. c #BC9200",
"y. c #BC9300",
"u. c #BF9500",
"i. c #C09600",
"p. c #C19600",
"a. c #C29700",
"s. c #C49900",
"d. c #C69A00",
"f. c #C69B00",
"g. c #C79B00",
"h. c #CB9F00",
"j. c #CFA200",
"k. c #D0A200",
"l. c #D2A400",
"z. c #D3A500",
"x. c #D4A600",
"c. c #D8A900",
"v. c #DBAB00",
"b. c #DDAD00",
"n. c #DEAE00",
"m. c #DFAE00",
"M. c #E1B000",
"N. c #E2B100",
"B. c #E3B200",
"V. c #E5B300",
"C. c #E7B400",
"Z. c #E8B500",
"A. c #E9B600",
"S. c #EBB800",
"D. c #ECB900",
"F. c #EDBA00",
"G. c #EEBA00",
"H. c #F0BC00",
"J. c #F2BD00",
"K. c #F5C000",
"L. c #F6C100",
"P. c #F8C200",
"I. c #F9C300",
"U. c #FAC400",
"Y. c #FDC600",
"T. c #FDC700",
"R. c #FEC700",
"E. c None",
/* pixels */
"                                                                                                                                ",
"                                                                                                                                ",
"                                                                                                                                ",
"                                                                                                                                ",
"                                                                                                                                ",
"                                                            5 e                                                                 ",
"                                                          . F ~ X                                                               ",
"                                                          8 @.5.y                                                               ",
"                                                          n d.x.J                                                               ",
"                                                        X ! G.J...o                                                             ",
"                                                        r -.Y.R.e.d                                                             ",
"                                                    0 G &.m.R.R.C.,.P y .                                                       ",
"                                              & z _ 1.l.J.R.R.R.R.K.c.6.] b ;                                                   ",
"                                              4 T s.P.R.R.R.R.R.R.R.R.I.k.( w                                                   ",
"                                              @ s K o.s.G.R.R.R.R.J.h.#.U g &                                                   ",
"                                                    2 v } x.R.R.m.O.N 9                                                         ",
"                                                        7 $.Y.Y.8.y                                                             ",
"                                                        . R A.G.| X                                                             ",
"                                                          c u.j.A                                                               ",
"                                                          2 X.<.0                                                               ",
"                                                            B I .                                                               ",
"                                                            ; 3                                                                 ",
"                                                                                                                                ",
"                                                                                                                                ",
"                                                                                                                                ",
"                                                                                                                                ",
"                                                                                                                                ",
"                                                                                                                                ",
"                                                                                                                                ",
"                                                                                                                                ",
"                                                                                                                                ",
"                                                                                                                                ",
"                                                                                                                                ",
"                                                                                                                                ",
"                                                                                                                                ",
"                          1 7                                                                                                   ",
"                          V Y                                                                                                   ",
"                        :  .;.5                                                                                                 ",
"                        h 0.f.n                                                                                                 ",
"                    % x @.V.S.:.M -                                                                                             ",
"                  q ) p.A.Y.T.G.g.} p                                                                                           ",
"                  3 L 3.N.Y.Y.A.q.W q                                                                                           ",
"                    + d { b.V.+.k %                                                                                             ",
"                        f 4.a.c                                                               7 t                               ",
"                        * [ *.>                                                             O I ' #                             ",
"                          b H                                                               i >.t.l                             ",
"                          = 1                                                               H v.B./                             ",
"                                                                                        & x ;.P.U.r.m ;                         ",
"                                                                                  $ g R %.i.Z.R.R.F.d.*.^ z =                   ",
"                                                                                  , H 7.D.R.R.R.R.R.R.H.y.T 6                   ",
"                                                                                  O u C ` 2.M.R.R.Z.9.[ S a $                   ",
"                                                                                        @ d #.L.P.4.j &                         ",
"                                                                                            Z z.n.E                             ",
"                                                                                            r =.w.s                             ",
"                                                                                            X D Q O                             ",
"                                                                                              < 7                               ",
"                                                                                                                                ",
"                                                                                                                                ",
"                                                                                                                                ",
"                                                                                                                                ",
"                                                                                                                                ",
"                                                                                                                                ",
"                                                                                                                                ",
"                                                                      E.E.E.E.E.E.E.E.E.E.E.E.E.E.E.E.E.E.E.E.E.E.E.E.E.E.E.E.E."
};
