/* XPM */
static char *result[] = {
/* columns rows colors chars-per-pixel */
"64 64 21 1 ",
"  c #FFAA00",
". c #FFAC0A",
"X c #FFAD10",
"o c #FFAE18",
"O c #FFB022",
"+ c #FFB22F",
"@ c #FFB233",
"# c #FFB43F",
"$ c #FFBA3F",
"% c #FFBC3F",
"& c #FEC13E",
"* c #FEC53E",
"= c #FEC73E",
"- c #FECB3E",
"; c #FED15A",
": c #FED363",
"> c #FED66E",
", c #FFD97D",
"< c #FFDE90",
"1 c #FFDF96",
"2 c #FFE4A8",
/* pixels */
"                                                                ",
"                                                                ",
"                                                                ",
"                                                                ",
"                                                                ",
"                                                                ",
"                                                                ",
"                                                                ",
"                                                                ",
"OOOOOOOOOOOOOOOOOOOX          .OOOOOOOOOOOOOOOOX                ",
"###################O          o################@OOOOOOOOOOOOOOOO",
"###################@OOOOOOOOOO+#################################",
"################################################################",
"################################################################",
"################################################################",
"################################################################",
"################################################################",
"################################################################",
"################################################################",
"################################################################",
"################################################################",
"################################################################",
"################################################################",
"################################################################",
"################################################################",
"################################################################",
"################################################################",
"################################################################",
"##################$&&&&&&&&&&&&&&&&&&%##########################",
"&&&&&&&&&&&&&&&&&&*------------------&########$&&&&&&&&&&&&&&&&&",
"-------------------------------------=&&&&&&&&*-----------------",
"----------------------------------------------------------------",
"----------------------------------------------------------------",
"----------------------------------------------------------------",
"----------------------------------------------------------------",
"----------------------------------------------------------------",
"----------------------------------------------------------------",
"----------------------------------------------------------------",
"----------------------------------------------------------------",
"----------------------------------------------------------------",
"----------------------------------------------------------------",
"----------------------------------------------------------------",
"----------------------------------------------------------------",
"----------------------------------------------------------------",
"----------------------------------------------------------------",
"----------------------------------------------------------------",
"----------------------------------------------------------------",
"----------------------------------------------------------------",
"----------------------------------------------------------------",
"----------------------------------------------------;,,,,,,,,,,,",
",,,,,,,,,,,,,,,,,,:--------------------------------->22222222222",
"222222222222222222,------------------;,,,,,,,,,,,,,,<22222222222",
"222222222222222222,------------------>22222222222222222222222222",
"2222222222222222221,,,,,,,,,,,,,,,,,,<22222222222222222222222222",
"2222222222222222222222222222222222222222222222222222222222222222",
"2222222222222222222222222222222222222222222222222222222222222222",
"2222222222222222222222222222222222222222222222222222222222222222",
"2222222222222222222222222222222222222222222222222222222222222222",
"2222222222222222222222222222222222222222222222222222222222222222",
"2222222222222222222222222222222222222222222222222222222222222222",
"2222222222222222222222222222222222222222222222222222222222222222",
"2222222222222222222222222222222222222222222222222222222222222222",
"2222222222222222222222222222222222222222222222222222222222222222",
"2222222222222222222222222222222222222222222222222222222222222222"
};
